<svg width="35" height="35" viewBox="0 0 35 35" fill="none" xmlns="http://www.w3.org/2000/svg">
<rect width="35" height="35" fill="#339966"/>
<path d="M23.5 7C24.4168 7.00007 25.3118 7.2802 26.0651 7.80291C26.8184 8.32561 27.394 9.06594 27.7149 9.9248C28.0359 10.7837 28.0868 11.7201 27.8609 12.6087C27.635 13.4973 27.1431 14.2957 26.451 14.897C26.806 15.864 27 16.91 27 18C26.9992 19.3149 26.7104 20.6137 26.1538 21.8049C25.5971 22.9962 24.7863 24.051 23.7781 24.8952C22.77 25.7394 21.5892 26.3524 20.3187 26.6912C19.0482 27.0299 17.7189 27.0862 16.4243 26.856C15.1297 26.6258 13.9013 26.1147 12.8255 25.3587C11.7496 24.6027 10.8525 23.6202 10.1972 22.4802C9.54195 21.3402 9.14441 20.0705 9.03258 18.7604C8.92076 17.4503 9.09737 16.1315 9.54998 14.897C9.06007 14.4713 8.66805 13.9446 8.40082 13.3531C8.13359 12.7616 7.99747 12.1193 8.00181 11.4703C8.00615 10.8212 8.15083 10.1808 8.42594 9.59296C8.70105 9.0051 9.10007 8.4837 9.59563 8.06455C10.0912 7.64539 10.6715 7.3384 11.2969 7.16463C11.9223 6.99085 12.5778 6.95441 13.2186 7.05781C13.8593 7.16121 14.4701 7.40199 15.0091 7.76364C15.5481 8.12529 16.0024 8.59925 16.341 9.153C17.4382 8.94827 18.5638 8.94827 19.661 9.153C20.0625 8.49502 20.6265 7.95138 21.2989 7.57433C21.9712 7.19729 22.7292 6.99951 23.5 7V7ZM16 18H14C14 19.0436 14.4078 20.0458 15.1364 20.7929C15.865 21.54 16.8567 21.9727 17.8999 21.9988C18.9432 22.0249 19.9553 21.6423 20.7204 20.9326C21.4854 20.2229 21.9428 19.2423 21.995 18.2L22 18H20C20.0023 18.519 19.8028 19.0185 19.4436 19.3932C19.0844 19.7678 18.5937 19.9881 18.075 20.0075C17.5564 20.027 17.0505 19.8441 16.6643 19.4975C16.278 19.1509 16.0416 18.6677 16.005 18.15L16 18Z" fill="white"/>
</svg>
